<mxfile host="65bd71144e">
    <diagram id="65umUAoASncpZn3mJVC5" name="Page-1">
        <mxGraphModel dx="1542" dy="820" grid="1" gridSize="10" guides="1" tooltips="1" connect="1" arrows="1" fold="1" page="1" pageScale="1" pageWidth="1100" pageHeight="850" math="0" shadow="0">
            <root>
                <mxCell id="0"/>
                <mxCell id="1" parent="0"/>
                <mxCell id="2" value="" style="strokeWidth=1;shadow=0;dashed=0;align=center;html=1;shape=mxgraph.mockup.containers.browserWindow;rSize=0;strokeColor=#B3B3B3;strokeColor2=#008cff;strokeColor3=#c4c4c4;mainText=,;recursiveResize=0;gradientColor=none;" vertex="1" parent="1">
                    <mxGeometry width="1100" height="850" as="geometry"/>
                </mxCell>
                <mxCell id="85" value="&lt;span style=&quot;color: rgb(63, 63, 63);&quot;&gt;Image 11&lt;/span&gt;" style="rounded=1;whiteSpace=wrap;html=1;fontColor=#B3B3B3;strokeColor=#B3B3B3;" vertex="1" parent="2">
                    <mxGeometry x="780" y="661.5" width="140" height="177" as="geometry"/>
                </mxCell>
                <mxCell id="86" value="&lt;span style=&quot;color: rgb(63, 63, 63);&quot;&gt;Image 12&lt;/span&gt;" style="rounded=1;whiteSpace=wrap;html=1;fontColor=#B3B3B3;strokeColor=#B3B3B3;" vertex="1" parent="2">
                    <mxGeometry x="950" y="663" width="140" height="177" as="geometry"/>
                </mxCell>
                <mxCell id="78" value="&lt;span style=&quot;color: rgb(63, 63, 63);&quot;&gt;Image 5&lt;/span&gt;" style="rounded=1;whiteSpace=wrap;html=1;fontColor=#B3B3B3;strokeColor=#B3B3B3;" vertex="1" parent="2">
                    <mxGeometry x="780" y="475" width="140" height="177" as="geometry"/>
                </mxCell>
                <mxCell id="79" value="&lt;span style=&quot;color: rgb(63, 63, 63);&quot;&gt;Image 6&lt;/span&gt;" style="rounded=1;whiteSpace=wrap;html=1;fontColor=#B3B3B3;strokeColor=#B3B3B3;" vertex="1" parent="2">
                    <mxGeometry x="950" y="473" width="140" height="177" as="geometry"/>
                </mxCell>
                <mxCell id="88" value="" style="ellipse;whiteSpace=wrap;html=1;aspect=fixed;strokeColor=#6c8ebf;fillColor=#dae8fc;gradientColor=#7ea6e0;" vertex="1" parent="2">
                    <mxGeometry x="1039" y="630" width="51" height="51" as="geometry"/>
                </mxCell>
                <mxCell id="3" value="Page 1" style="strokeWidth=1;shadow=0;dashed=0;align=center;html=1;shape=mxgraph.mockup.containers.anchor;fontSize=17;fontColor=#666666;align=left;whiteSpace=wrap;" vertex="1" parent="2">
                    <mxGeometry x="60" y="12" width="110" height="26" as="geometry"/>
                </mxCell>
                <mxCell id="4" value="https://www.streameverything.it" style="strokeWidth=1;shadow=0;dashed=0;align=center;html=1;shape=mxgraph.mockup.containers.anchor;rSize=0;fontSize=17;fontColor=#666666;align=left;" vertex="1" parent="2">
                    <mxGeometry x="130" y="60" width="250" height="26" as="geometry"/>
                </mxCell>
                <mxCell id="7" value="Titolo" style="strokeWidth=1;shadow=0;dashed=0;align=center;html=1;shape=mxgraph.mockup.buttons.button;strokeColor=#666666;fontColor=#ffffff;mainText=;buttonStyle=round;fontSize=17;fontStyle=1;fillColor=#0000FF;whiteSpace=wrap;" vertex="1" parent="2">
                    <mxGeometry x="20" y="250" width="240" height="50" as="geometry"/>
                </mxCell>
                <mxCell id="8" value="Attori" style="strokeWidth=1;shadow=0;dashed=0;align=center;html=1;shape=mxgraph.mockup.buttons.button;strokeColor=#666666;fontColor=#ffffff;mainText=;buttonStyle=round;fontSize=17;fontStyle=1;fillColor=#0000FF;whiteSpace=wrap;" vertex="1" parent="2">
                    <mxGeometry x="20" y="320" width="240" height="50" as="geometry"/>
                </mxCell>
                <mxCell id="9" value="Regista" style="strokeWidth=1;shadow=0;dashed=0;align=center;html=1;shape=mxgraph.mockup.buttons.button;strokeColor=#666666;fontColor=#ffffff;mainText=;buttonStyle=round;fontSize=17;fontStyle=1;fillColor=#0000FF;whiteSpace=wrap;" vertex="1" parent="2">
                    <mxGeometry x="20" y="390" width="240" height="50" as="geometry"/>
                </mxCell>
                <mxCell id="10" value="Tipologia" style="strokeWidth=1;shadow=0;dashed=0;align=center;html=1;shape=mxgraph.mockup.buttons.button;strokeColor=#666666;fontColor=#ffffff;mainText=;buttonStyle=round;fontSize=17;fontStyle=1;fillColor=#0000FF;whiteSpace=wrap;" vertex="1" parent="2">
                    <mxGeometry x="290" y="250" width="510" height="50" as="geometry"/>
                </mxCell>
                <mxCell id="11" value="Filtri" style="strokeWidth=1;shadow=0;dashed=0;align=center;html=1;shape=mxgraph.mockup.buttons.button;strokeColor=#666666;fontColor=#ffffff;mainText=;buttonStyle=round;fontSize=17;fontStyle=1;fillColor=#0000FF;whiteSpace=wrap;" vertex="1" parent="2">
                    <mxGeometry x="830" y="250" width="240" height="50" as="geometry"/>
                </mxCell>
                <mxCell id="12" value="" style="rounded=0;whiteSpace=wrap;html=1;strokeColor=#0000FF;" vertex="1" parent="2">
                    <mxGeometry x="300" y="300" width="490" height="140" as="geometry"/>
                </mxCell>
                <mxCell id="13" value="" style="rounded=0;whiteSpace=wrap;html=1;strokeColor=#0000FF;" vertex="1" parent="2">
                    <mxGeometry x="840" y="300" width="220" height="510" as="geometry"/>
                </mxCell>
                <mxCell id="14" value="Anime" style="rounded=1;whiteSpace=wrap;html=1;" vertex="1" parent="2">
                    <mxGeometry x="310" y="310" width="110" height="120" as="geometry"/>
                </mxCell>
                <mxCell id="15" value="FIlm" style="rounded=1;whiteSpace=wrap;html=1;" vertex="1" parent="2">
                    <mxGeometry x="430" y="310" width="110" height="120" as="geometry"/>
                </mxCell>
                <mxCell id="16" value="Serie TV" style="rounded=1;whiteSpace=wrap;html=1;" vertex="1" parent="2">
                    <mxGeometry x="550" y="310" width="110" height="120" as="geometry"/>
                </mxCell>
                <mxCell id="17" value="Cortometraggi" style="rounded=1;whiteSpace=wrap;html=1;" vertex="1" parent="2">
                    <mxGeometry x="670" y="310" width="110" height="120" as="geometry"/>
                </mxCell>
                <mxCell id="18" value="" style="rounded=0;whiteSpace=wrap;html=1;strokeColor=#0000FF;" vertex="1" parent="2">
                    <mxGeometry x="840" y="300" width="220" height="230" as="geometry"/>
                </mxCell>
                <mxCell id="19" value="&lt;span style=&quot;white-space: pre;&quot;&gt;&#x9;&lt;/span&gt;Horror" style="strokeWidth=1;shadow=0;dashed=0;align=center;html=1;shape=mxgraph.mockup.forms.rrect;rSize=0;fillColor=#eeeeee;strokeColor=#999999;gradientColor=#cccccc;align=left;spacingLeft=4;fontSize=17;fontColor=#666666;labelPosition=right;" vertex="1" parent="2">
                    <mxGeometry x="860" y="350" width="15" height="15" as="geometry"/>
                </mxCell>
                <mxCell id="20" value="&lt;span style=&quot;white-space: pre;&quot;&gt;&#x9;&lt;/span&gt;Romantico" style="strokeWidth=1;shadow=0;dashed=0;align=center;html=1;shape=mxgraph.mockup.forms.rrect;rSize=0;fillColor=#eeeeee;strokeColor=#999999;gradientColor=#cccccc;align=left;spacingLeft=4;fontSize=17;fontColor=#666666;labelPosition=right;" vertex="1" parent="2">
                    <mxGeometry x="860" y="375" width="15" height="15" as="geometry"/>
                </mxCell>
                <mxCell id="21" value="&lt;span style=&quot;white-space: pre;&quot;&gt;&#x9;&lt;/span&gt;Azione" style="strokeWidth=1;shadow=0;dashed=0;align=center;html=1;shape=mxgraph.mockup.forms.rrect;rSize=0;fillColor=#eeeeee;strokeColor=#999999;gradientColor=#cccccc;align=left;spacingLeft=4;fontSize=17;fontColor=#666666;labelPosition=right;" vertex="1" parent="2">
                    <mxGeometry x="860" y="400" width="15" height="15" as="geometry"/>
                </mxCell>
                <mxCell id="22" value="&lt;span style=&quot;white-space: pre;&quot;&gt;&#x9;&lt;/span&gt;Avventura" style="strokeWidth=1;shadow=0;dashed=0;align=center;html=1;shape=mxgraph.mockup.forms.rrect;rSize=0;fillColor=#eeeeee;strokeColor=#999999;gradientColor=#cccccc;align=left;spacingLeft=4;fontSize=17;fontColor=#666666;labelPosition=right;" vertex="1" parent="2">
                    <mxGeometry x="860" y="425" width="15" height="15" as="geometry"/>
                </mxCell>
                <mxCell id="23" value="&lt;span style=&quot;white-space: pre;&quot;&gt;&#x9;&lt;/span&gt;Fantascienza" style="strokeWidth=1;shadow=0;dashed=0;align=center;html=1;shape=mxgraph.mockup.forms.rrect;rSize=0;fillColor=#eeeeee;strokeColor=#999999;gradientColor=#cccccc;align=left;spacingLeft=4;fontSize=17;fontColor=#666666;labelPosition=right;" vertex="1" parent="2">
                    <mxGeometry x="860" y="450" width="15" height="15" as="geometry"/>
                </mxCell>
                <mxCell id="24" value="&lt;span style=&quot;white-space: pre;&quot;&gt;&#x9;&lt;/span&gt;Drammatico" style="strokeWidth=1;shadow=0;dashed=0;align=center;html=1;shape=mxgraph.mockup.forms.rrect;rSize=0;fillColor=#eeeeee;strokeColor=#999999;gradientColor=#cccccc;align=left;spacingLeft=4;fontSize=17;fontColor=#666666;labelPosition=right;" vertex="1" parent="2">
                    <mxGeometry x="860" y="475" width="15" height="15" as="geometry"/>
                </mxCell>
                <mxCell id="26" value="GENERE" style="text;html=1;align=center;verticalAlign=middle;whiteSpace=wrap;rounded=0;" vertex="1" parent="2">
                    <mxGeometry x="850" y="310" width="60" height="30" as="geometry"/>
                </mxCell>
                <mxCell id="27" value="&lt;span style=&quot;white-space: pre;&quot;&gt;&#x9;&lt;/span&gt;Documentario" style="strokeWidth=1;shadow=0;dashed=0;align=center;html=1;shape=mxgraph.mockup.forms.rrect;rSize=0;fillColor=#eeeeee;strokeColor=#999999;gradientColor=#cccccc;align=left;spacingLeft=4;fontSize=17;fontColor=#666666;labelPosition=right;" vertex="1" parent="2">
                    <mxGeometry x="860" y="500" width="15" height="15" as="geometry"/>
                </mxCell>
                <mxCell id="28" value="&lt;span style=&quot;white-space: pre;&quot;&gt;&#x9;&lt;/span&gt;Uscita" style="strokeWidth=1;shadow=0;dashed=0;align=center;html=1;shape=mxgraph.mockup.forms.rrect;rSize=0;fillColor=#eeeeee;strokeColor=#999999;gradientColor=#cccccc;align=left;spacingLeft=4;fontSize=17;fontColor=#666666;labelPosition=right;" vertex="1" parent="2">
                    <mxGeometry x="860" y="576" width="15" height="15" as="geometry"/>
                </mxCell>
                <mxCell id="66" value="" style="rounded=0;whiteSpace=wrap;html=1;strokeColor=#0000FF;" vertex="1" parent="2">
                    <mxGeometry x="840" y="660" width="220" height="180" as="geometry"/>
                </mxCell>
                <mxCell id="29" value="&lt;span style=&quot;white-space: pre;&quot;&gt;&#x9;&lt;/span&gt;Successo" style="strokeWidth=1;shadow=0;dashed=0;align=center;html=1;shape=mxgraph.mockup.forms.rrect;rSize=0;fillColor=#eeeeee;strokeColor=#999999;gradientColor=#cccccc;align=left;spacingLeft=4;fontSize=17;fontColor=#666666;labelPosition=right;" vertex="1" parent="2">
                    <mxGeometry x="860" y="601" width="15" height="15" as="geometry"/>
                </mxCell>
                <mxCell id="30" value="&lt;span style=&quot;white-space: pre;&quot;&gt;&#x9;&lt;/span&gt;Più visti" style="strokeWidth=1;shadow=0;dashed=0;align=center;html=1;shape=mxgraph.mockup.forms.rrect;rSize=0;fillColor=#eeeeee;strokeColor=#999999;gradientColor=#cccccc;align=left;spacingLeft=4;fontSize=17;fontColor=#666666;labelPosition=right;" vertex="1" parent="2">
                    <mxGeometry x="860" y="626" width="15" height="15" as="geometry"/>
                </mxCell>
                <mxCell id="31" value="&lt;span style=&quot;white-space: pre;&quot;&gt;&#x9;&lt;/span&gt;Americano" style="strokeWidth=1;shadow=0;dashed=0;align=center;html=1;shape=mxgraph.mockup.forms.rrect;rSize=0;fillColor=#eeeeee;strokeColor=#999999;gradientColor=#cccccc;align=left;spacingLeft=4;fontSize=17;fontColor=#666666;labelPosition=right;" vertex="1" parent="2">
                    <mxGeometry x="860" y="712" width="15" height="15" as="geometry"/>
                </mxCell>
                <mxCell id="32" value="&lt;span style=&quot;white-space: pre;&quot;&gt;&#x9;&lt;/span&gt;Italiano" style="strokeWidth=1;shadow=0;dashed=0;align=center;html=1;shape=mxgraph.mockup.forms.rrect;rSize=0;fillColor=#eeeeee;strokeColor=#999999;gradientColor=#cccccc;align=left;spacingLeft=4;fontSize=17;fontColor=#666666;labelPosition=right;" vertex="1" parent="2">
                    <mxGeometry x="860" y="737" width="15" height="15" as="geometry"/>
                </mxCell>
                <mxCell id="33" value="&lt;span style=&quot;white-space: pre;&quot;&gt;&#x9;&lt;/span&gt;Spagnolo" style="strokeWidth=1;shadow=0;dashed=0;align=center;html=1;shape=mxgraph.mockup.forms.rrect;rSize=0;fillColor=#eeeeee;strokeColor=#999999;gradientColor=#cccccc;align=left;spacingLeft=4;fontSize=17;fontColor=#666666;labelPosition=right;" vertex="1" parent="2">
                    <mxGeometry x="860" y="762" width="15" height="15" as="geometry"/>
                </mxCell>
                <mxCell id="34" value="&lt;span style=&quot;white-space: pre;&quot;&gt;&#x9;&lt;/span&gt;Francese" style="strokeWidth=1;shadow=0;dashed=0;align=center;html=1;shape=mxgraph.mockup.forms.rrect;rSize=0;fillColor=#eeeeee;strokeColor=#999999;gradientColor=#cccccc;align=left;spacingLeft=4;fontSize=17;fontColor=#666666;labelPosition=right;" vertex="1" parent="2">
                    <mxGeometry x="860" y="787" width="15" height="15" as="geometry"/>
                </mxCell>
                <mxCell id="65" value="ORDINE" style="text;html=1;align=center;verticalAlign=middle;whiteSpace=wrap;rounded=0;" vertex="1" parent="2">
                    <mxGeometry x="850" y="540" width="60" height="30" as="geometry"/>
                </mxCell>
                <mxCell id="67" value="NAZIONALITÀ" style="text;html=1;align=center;verticalAlign=middle;whiteSpace=wrap;rounded=0;" vertex="1" parent="2">
                    <mxGeometry x="850" y="670" width="90" height="30" as="geometry"/>
                </mxCell>
                <mxCell id="68" value="&lt;span style=&quot;white-space: pre;&quot;&gt;&#x9;&lt;/span&gt;Altro" style="strokeWidth=1;shadow=0;dashed=0;align=center;html=1;shape=mxgraph.mockup.forms.rrect;rSize=0;fillColor=#eeeeee;strokeColor=#999999;gradientColor=#cccccc;align=left;spacingLeft=4;fontSize=17;fontColor=#666666;labelPosition=right;" vertex="1" parent="2">
                    <mxGeometry x="860" y="810" width="15" height="15" as="geometry"/>
                </mxCell>
                <mxCell id="69" value="&lt;font&gt;Image 1&lt;/font&gt;" style="rounded=1;whiteSpace=wrap;html=1;fontColor=#B3B3B3;strokeColor=#B3B3B3;" vertex="1" parent="2">
                    <mxGeometry x="45" y="473" width="140" height="177" as="geometry"/>
                </mxCell>
                <mxCell id="75" value="&lt;span style=&quot;color: rgb(63, 63, 63);&quot;&gt;Image 2&lt;/span&gt;" style="rounded=1;whiteSpace=wrap;html=1;fontColor=#B3B3B3;strokeColor=#B3B3B3;" vertex="1" parent="2">
                    <mxGeometry x="230" y="475" width="140" height="177" as="geometry"/>
                </mxCell>
                <mxCell id="76" value="&lt;br&gt;&lt;span style=&quot;color: rgb(63, 63, 63); font-family: Helvetica; font-size: 12px; font-style: normal; font-variant-ligatures: normal; font-variant-caps: normal; font-weight: 400; letter-spacing: normal; orphans: 2; text-align: center; text-indent: 0px; text-transform: none; widows: 2; word-spacing: 0px; -webkit-text-stroke-width: 0px; white-space: normal; background-color: rgb(251, 251, 251); text-decoration-thickness: initial; text-decoration-style: initial; text-decoration-color: initial; float: none; display: inline !important;&quot;&gt;Image 3&lt;/span&gt;&lt;br&gt;&lt;div&gt;&lt;span style=&quot;color: rgb(63, 63, 63); font-family: Helvetica; font-size: 12px; font-style: normal; font-variant-ligatures: normal; font-variant-caps: normal; font-weight: 400; letter-spacing: normal; orphans: 2; text-align: center; text-indent: 0px; text-transform: none; widows: 2; word-spacing: 0px; -webkit-text-stroke-width: 0px; white-space: normal; background-color: rgb(251, 251, 251); text-decoration-thickness: initial; text-decoration-style: initial; text-decoration-color: initial; float: none; display: inline !important;&quot;&gt;&lt;br&gt;&lt;/span&gt;&lt;/div&gt;" style="rounded=1;whiteSpace=wrap;html=1;fontColor=#B3B3B3;strokeColor=#B3B3B3;" vertex="1" parent="2">
                    <mxGeometry x="415" y="475" width="140" height="177" as="geometry"/>
                </mxCell>
                <mxCell id="91" value="" style="endArrow=classic;html=1;endFill=0;strokeColor=#0000FF;exitX=1.002;exitY=0.697;exitDx=0;exitDy=0;exitPerimeter=0;" edge="1" parent="2" source="13">
                    <mxGeometry width="50" height="50" relative="1" as="geometry">
                        <mxPoint x="1055" y="655.43" as="sourcePoint"/>
                        <mxPoint x="1075" y="655.43" as="targetPoint"/>
                    </mxGeometry>
                </mxCell>
                <mxCell id="77" value="&lt;span style=&quot;color: rgb(63, 63, 63);&quot;&gt;Image 4&lt;/span&gt;" style="rounded=1;whiteSpace=wrap;html=1;fontColor=#B3B3B3;strokeColor=#B3B3B3;" vertex="1" parent="2">
                    <mxGeometry x="600" y="473" width="140" height="177" as="geometry"/>
                </mxCell>
                <mxCell id="81" value="&lt;span style=&quot;color: rgb(63, 63, 63);&quot;&gt;Image 7&lt;/span&gt;" style="rounded=1;whiteSpace=wrap;html=1;fontColor=#B3B3B3;strokeColor=#B3B3B3;" vertex="1" parent="2">
                    <mxGeometry x="45" y="663" width="140" height="177" as="geometry"/>
                </mxCell>
                <mxCell id="82" value="&lt;span style=&quot;color: rgb(63, 63, 63);&quot;&gt;Image 8&lt;/span&gt;" style="rounded=1;whiteSpace=wrap;html=1;fontColor=#B3B3B3;strokeColor=#B3B3B3;" vertex="1" parent="2">
                    <mxGeometry x="230" y="663" width="140" height="177" as="geometry"/>
                </mxCell>
                <mxCell id="83" value="&lt;span style=&quot;color: rgb(63, 63, 63);&quot;&gt;Image 9&lt;/span&gt;" style="rounded=1;whiteSpace=wrap;html=1;fontColor=#B3B3B3;strokeColor=#B3B3B3;" vertex="1" parent="2">
                    <mxGeometry x="415" y="663" width="140" height="177" as="geometry"/>
                </mxCell>
                <mxCell id="84" value="&lt;span style=&quot;color: rgb(63, 63, 63);&quot;&gt;Image 10&lt;/span&gt;" style="rounded=1;whiteSpace=wrap;html=1;fontColor=#B3B3B3;strokeColor=#B3B3B3;" vertex="1" parent="2">
                    <mxGeometry x="600" y="663" width="140" height="177" as="geometry"/>
                </mxCell>
                <mxCell id="87" value="" style="ellipse;whiteSpace=wrap;html=1;aspect=fixed;strokeColor=#6c8ebf;fillColor=#dae8fc;gradientColor=#7ea6e0;" vertex="1" parent="2">
                    <mxGeometry x="20" y="630" width="51" height="51" as="geometry"/>
                </mxCell>
                <mxCell id="89" value="" style="endArrow=classic;html=1;endFill=0;strokeWidth=1;jumpSize=6;strokeColor=#0000FF;" edge="1" parent="2">
                    <mxGeometry width="50" height="50" relative="1" as="geometry">
                        <mxPoint x="55.5" y="655.36" as="sourcePoint"/>
                        <mxPoint x="35.5" y="655.36" as="targetPoint"/>
                    </mxGeometry>
                </mxCell>
                <mxCell id="5" value="" style="rounded=0;whiteSpace=wrap;html=1;fontStyle=0" vertex="1" parent="1">
                    <mxGeometry y="110" width="1100" height="130" as="geometry"/>
                </mxCell>
                <mxCell id="6" value="&lt;h1&gt;&lt;font style=&quot;font-size: 40px; color: rgb(0, 0, 255);&quot;&gt;StreamEveryThing&lt;/font&gt;&lt;/h1&gt;" style="ellipse;whiteSpace=wrap;html=1;dashed=1;strokeWidth=3;strokeColor=#666666;fontFamily=Verdana;fontStyle=2;fillColor=#f5f5f5;gradientColor=#b3b3b3;" vertex="1" parent="1">
                    <mxGeometry x="285" y="125" width="530" height="100" as="geometry"/>
                </mxCell>
            </root>
        </mxGraphModel>
    </diagram>
</mxfile>